<svg width="48" height="48" viewBox="0 0 48 48" fill="none" xmlns="http://www.w3.org/2000/svg">
<path d="M44 1H4C2.34315 1 1 2.34315 1 4V44C1 45.6569 2.34315 47 4 47H44C45.6569 47 47 45.6569 47 44V4C47 2.34315 45.6569 1 44 1Z" stroke="#C8C8C8" stroke-width="2"/>
<path d="M9.60011 7.20045C9.60011 6.63238 9.1396 6.17188 8.57154 6.17188C8.00347 6.17188 7.54297 6.63238 7.54297 7.20045V38.0576C7.54297 38.6257 8.00347 39.0862 8.57154 39.0862C9.1396 39.0862 9.60011 38.6257 9.60011 38.0576V7.20045Z" fill="#C8C8C8"/>
<path d="M8.57154 37.0288C8.00348 37.0288 7.54297 37.4893 7.54297 38.0574C7.54297 38.6254 8.00348 39.0859 8.57154 39.0859H39.4287C39.9968 39.0859 40.4573 38.6254 40.4573 38.0574C40.4573 37.4893 39.9968 37.0288 39.4287 37.0288H8.57154Z" fill="#C8C8C8"/>
<path d="M11.3145 34.6285L18.8574 15.7714L28.4574 21.2571L40.1145 8.22852" stroke="#C8C8C8" stroke-width="3" stroke-linecap="round"/>
</svg>
